<?xml version="1.0" encoding="utf-8"?>
<!-- Generator: Adobe Illustrator 25.4.1, SVG Export Plug-In . SVG Version: 6.00 Build 0)  -->
<svg version="1.1" id="Layer_1" xmlns="http://www.w3.org/2000/svg" xmlns:xlink="http://www.w3.org/1999/xlink" x="0px" y="0px"
	 viewBox="0 0 327.1 288" style="enable-background:new 0 0 327.1 288;" xml:space="preserve">
<style type="text/css">
	.st0{fill:#A82424;}
</style>
<g>
	<path class="st0" d="M111.5,61.3c-0.6-0.4-1.3-0.7-2.3-0.9c-0.4-0.1-1.4-0.3-3.1-0.5c-1.8-0.3-2.9-0.5-3.3-0.6
		c-0.3-0.1-0.5-0.3-0.7-0.6c-0.2-0.3-0.2-0.6-0.1-0.9c0.1-0.3,0.4-0.6,0.7-0.9c0.8-0.5,1.8-0.4,3.2,0.1l1-3.2
		c-1.4-0.4-2.5-0.6-3.4-0.5c-0.9,0.1-1.7,0.3-2.5,0.8c-1.2,0.7-1.9,1.7-2.2,2.9s-0.2,2.4,0.5,3.4c0.4,0.7,1.1,1.3,2.1,1.7
		c0.9,0.4,2.6,0.8,5.1,1.1c1.3,0.2,2.2,0.3,2.6,0.5c0.5,0.2,0.8,0.4,1,0.8c0.2,0.4,0.3,0.8,0.1,1.3c-0.2,0.5-0.5,0.9-1,1.2
		c-0.9,0.6-2.2,0.4-3.7-0.4l-1.5,2.9c1.3,0.8,2.5,1.2,3.6,1.2c1.1,0,2.2-0.3,3.3-1c1.4-0.9,2.2-1.9,2.6-3.3c0.3-1.3,0.1-2.6-0.6-3.8
		C112.6,62.2,112.1,61.7,111.5,61.3z"/>
	<path class="st0" d="M127.2,44.8c-2.3-1-4.7-1.1-7-0.2c-1.5,0.6-2.8,1.6-3.9,2.9c-1,1.3-1.7,2.8-1.9,4.4c-0.2,1.6-0.1,3.2,0.6,4.8
		c0.9,2.4,2.5,4.1,4.8,5.1c2.3,1.1,4.7,1.1,7.2,0.1c2.4-0.9,4-2.5,5-4.9c1-2.3,1-4.7,0.1-7.1C131.2,47.5,129.6,45.8,127.2,44.8z
		 M129,55.7c-0.6,1.5-1.7,2.5-3.2,3.1c-1.3,0.5-2.6,0.6-4,0.1c-1.7-0.5-2.9-1.7-3.7-3.6c-0.6-1.6-0.7-3.2,0-4.7
		c0.6-1.5,1.7-2.5,3.2-3.1c1.5-0.6,3-0.6,4.5,0.1c1.5,0.7,2.5,1.8,3.1,3.4C129.7,52.7,129.7,54.3,129,55.7z"/>
	<polygon class="st0" points="142.3,53.6 139.5,39.4 136.2,40.1 139.7,57.4 147.8,55.8 147.1,52.6 	"/>
	<path class="st0" d="M160.5,38c-1.3-0.6-3.2-0.8-5.8-0.7l-4,0.2l0.8,17.7l4-0.2c2.3-0.1,3.9-0.3,4.8-0.6c0.9-0.3,1.8-0.9,2.5-1.7
		c0.8-0.8,1.3-1.8,1.8-2.9c0.4-1.2,0.6-2.4,0.5-3.8c-0.1-1.9-0.6-3.6-1.4-5C162.9,39.6,161.8,38.6,160.5,38z M161.2,49.2
		c-0.4,0.9-0.9,1.5-1.6,1.9c-0.7,0.4-1.8,0.6-3.3,0.7l-1.6,0.1l-0.5-11.1l1.1,0c2.1-0.1,3.6,0.3,4.6,1.2c1.1,1,1.7,2.4,1.8,4.3
		C161.8,47.3,161.6,48.3,161.2,49.2z"/>
	<path class="st0" d="M190.6,40.2c-1.6-0.4-3.2-0.4-4.8,0.1c-1.6,0.5-3,1.3-4.1,2.4c-1.1,1.2-1.9,2.6-2.3,4.2c-0.6,2.4-0.3,4.8,1,7
		c1.3,2.2,3.2,3.6,5.7,4.3c2.5,0.6,4.8,0.3,6.9-1c2.2-1.3,3.6-3.2,4.2-5.7c0.6-2.5,0.3-4.9-1-7.1C194.9,42.2,193,40.8,190.6,40.2z
		 M194,50.6c-0.4,1.6-1.3,2.9-2.7,3.7c-1.4,0.8-2.8,1.1-4.4,0.7c-1.4-0.3-2.5-1.1-3.3-2.2c-1.1-1.4-1.4-3.1-0.9-5
		c0.4-1.7,1.3-3,2.7-3.8c1.4-0.8,2.8-1,4.4-0.6c1.6,0.4,2.8,1.3,3.6,2.7C194.2,47.5,194.4,49,194,50.6z"/>
	<path class="st0" d="M214.2,49.4l-4.7,9.9c-0.5,1.1-0.9,1.8-1.3,2.1c-0.3,0.3-0.7,0.5-1.3,0.6c-0.5,0.1-1,0-1.6-0.3
		c-0.5-0.2-0.9-0.6-1.1-1c-0.3-0.4-0.4-0.8-0.3-1.3c0-0.4,0.2-1.1,0.7-2l4.9-10.3l-3-1.5l-4.5,9.5c-0.9,1.9-1.4,3.3-1.4,4.3
		c0,1,0.3,1.9,0.9,2.9s1.5,1.7,2.6,2.2c0.9,0.4,1.7,0.7,2.5,0.7c0.8,0,1.6-0.1,2.4-0.4c0.8-0.3,1.4-0.8,1.9-1.3
		c0.5-0.5,1.1-1.6,1.9-3.2l4.5-9.5L214.2,49.4z"/>
	<polygon class="st0" points="220.6,56.7 223.2,58.4 215.1,70.3 218,72.2 226,60.3 228.7,62.1 230.5,59.4 222.4,53.9 	"/>
	<rect x="96.3" y="218.4" transform="matrix(0.6989 -0.7152 0.7152 0.6989 -128.327 135.9539)" class="st0" width="2" height="4"/>
	<polygon class="st0" points="110.1,233.6 107.5,231.8 113,224.1 111.2,222.8 104.5,232.2 108.9,235.3 	"/>
	<path class="st0" d="M117,240.5c1.5,0.8,3,0.9,4.5,0.5c1.6-0.5,2.7-1.5,3.5-2.9c0.8-1.5,1-3,0.5-4.6c-0.5-1.6-1.4-2.8-2.9-3.5
		c-0.9-0.5-2-0.7-3-0.7c-1.1,0-2.1,0.3-3,0.9c-0.9,0.6-1.6,1.3-2.1,2.3c-0.8,1.4-0.9,3-0.5,4.6C114.5,238.4,115.5,239.6,117,240.5z
		 M116.5,233.4c0.5-1,1.3-1.7,2.3-2c1-0.3,2-0.2,2.9,0.3c0.9,0.5,1.5,1.3,1.8,2.3c0.3,1,0.2,2-0.3,3c-0.5,1-1.3,1.6-2.3,1.9
		c-1,0.3-2,0.2-2.9-0.3c-0.8-0.4-1.4-1.1-1.7-1.9C115.8,235.6,115.9,234.5,116.5,233.4z"/>
	<path class="st0" d="M129.7,243.4l4.4,1.6l0.1,2.5l2.1,0.8l-0.3-12.3l-2.1-0.7l-8,9.3l2.1,0.8L129.7,243.4z M134,238.4l0.1,4.2
		l-2.9-1L134,238.4z"/>
	<polygon class="st0" points="144.2,242.4 147.5,250.7 149.6,251.2 151.8,239.9 149.7,239.5 148.2,246.9 144.9,238.5 142.8,238.1 
		140.5,249.3 142.7,249.8 	"/>
	<polygon class="st0" points="163.3,247.1 166.8,247.1 166.9,245 163.4,245 163.4,242.9 166.9,243 167,240.8 161.3,240.7 
		161.1,252.2 163.2,252.3 	"/>
	<path class="st0" d="M171.3,250.4c0.3,0.5,0.8,1,1.5,1.3s1.4,0.4,2.2,0.4c0.6-0.1,1.2-0.2,1.6-0.5c0.5-0.2,0.9-0.6,1.2-1
		c0.3-0.4,0.5-0.9,0.6-1.4s0.1-1.3,0-2.4l-0.6-6.8l-2.2,0.2l0.7,7.1c0.1,0.8,0.1,1.3,0,1.6c-0.1,0.3-0.3,0.5-0.5,0.7
		c-0.3,0.2-0.6,0.3-1,0.4c-0.4,0-0.7,0-1-0.1c-0.3-0.1-0.5-0.3-0.6-0.6c-0.1-0.3-0.2-0.7-0.3-1.3l-0.7-7.4l-2.2,0.2l0.6,6.8
		C170.7,248.9,170.9,249.9,171.3,250.4z"/>
	<polygon class="st0" points="186,250.2 184.2,242.8 190.7,249.1 192.8,248.6 190.2,237.4 188,237.9 189.8,245.2 183.2,239 
		181.2,239.5 183.8,250.7 	"/>
	<path class="st0" d="M200.2,246.1c1.4-0.5,2.3-1,2.8-1.4c0.5-0.4,0.9-0.9,1.2-1.6c0.3-0.6,0.5-1.4,0.5-2.2c0-0.8-0.2-1.6-0.5-2.4
		c-0.5-1.2-1.1-2.1-1.9-2.8c-0.8-0.7-1.7-1.1-2.6-1.2c-0.9-0.1-2.1,0.2-3.7,0.8l-2.4,0.9l4.2,10.7L200.2,246.1z M197.1,237.2
		c1.3-0.5,2.3-0.6,3.1-0.2c0.9,0.4,1.5,1.1,2,2.3c0.3,0.7,0.4,1.4,0.3,2s-0.3,1.1-0.6,1.5c-0.3,0.4-1,0.7-1.9,1.1l-0.9,0.4l-2.6-6.8
		L197.1,237.2z"/>
	<polygon class="st0" points="215.9,238.8 214.9,236.9 211.3,238.8 209.8,236.1 213.5,234.2 212.5,232.3 208.9,234.3 207.9,232.4 
		211.5,230.5 210.5,228.6 205,231.6 210.4,241.7 	"/>
	<path class="st0" d="M221.9,234.9c1.2-0.9,2-1.5,2.4-2c0.4-0.5,0.7-1.1,0.8-1.8c0.1-0.7,0.1-1.4-0.1-2.2c-0.2-0.8-0.5-1.5-1-2.3
		c-0.7-1-1.6-1.8-2.5-2.2c-1-0.5-1.9-0.6-2.8-0.5c-0.9,0.1-2,0.7-3.4,1.6l-2.1,1.5l6.6,9.4L221.9,234.9z M216.8,227.1
		c1.1-0.8,2.1-1.1,2.9-1c0.9,0.2,1.8,0.7,2.5,1.7c0.5,0.6,0.7,1.3,0.8,1.9c0.1,0.6,0,1.1-0.2,1.6c-0.2,0.4-0.8,1-1.6,1.5l-0.8,0.6
		l-4.2-5.9L216.8,227.1z"/>
	<rect x="232" y="218.5" transform="matrix(0.7078 -0.7064 0.7064 0.7078 -86.7194 229.4034)" class="st0" width="4" height="2"/>
	<path class="st0" d="M277.6,75.5h-3.1C251.2,37.9,209.4,13.1,162,13.7C116,14.4,75.7,39,53.1,75.5h-4.8
		c-14.3,0-25.9,11.6-25.9,25.9v86.6c0,14.3,11.6,25.9,25.9,25.9h5.6c23.5,36.8,64.9,61.1,111.7,60.5c45.5-0.6,85.3-24.7,108.2-60.5
		h3.9c14.3,0,25.9-11.6,25.9-25.9v-86.6C303.5,87.1,291.9,75.5,277.6,75.5z M297.5,187.9c0,11-8.9,19.9-19.9,19.9h-0.3h-7.6h-5.2
		h-3.9h-46.5h-5.5h-7.5h-15.6h-43.5h-15.6h-7.5h-5.5H67h-3.9h-5.2h-7.6h-2c-11,0-19.9-8.9-19.9-19.9v-86.6c0-11,8.9-19.9,19.9-19.9
		h1.3h7.5h5.2h3.9h45.7h5.3h7.2h14.3H189h14.3h7.2h5.3h45.7h3.9h5.2h7.1c0.2,0,0.3,0,0.4,0c10.8,0.2,19.4,9,19.4,19.9V187.9z
		 M164.8,218c8.2-0.1,16.1-1.6,23.5-4.2h10.4c-10.2,5.1-21.7,8.1-33.8,8.2c-12.9,0.2-25.1-2.8-35.9-8.2h10.4
		C147.3,216.6,155.9,218.1,164.8,218z M122.1,213.8c12.5,7.5,27.2,11.7,42.8,11.5c14.8-0.2,28.7-4.4,40.6-11.5h50.9
		c-20.9,27.6-53.8,45.7-91,46.2c-38.3,0.5-72.7-17.7-94.2-46.2H122.1z M162.8,70c-9.5,0.1-18.6,2.1-26.9,5.5h-9.5
		c10.8-5.9,23.1-9.3,36.3-9.5c13.9-0.2,27,3.3,38.4,9.5h-9.5C182.8,71.8,173,69.9,162.8,70z M207.5,75.5
		c-12.9-8.3-28.4-13-44.9-12.8c-15.7,0.2-30.3,4.9-42.6,12.8H70.3c20.8-28.3,54.2-47,92-47.5c38.9-0.5,73.7,18.3,95.1,47.5H207.5z
		 M162.1,20.3c43.5-0.6,82.1,21.4,104.6,55.2h-5.4c-21.9-31.1-58.4-51.3-99.2-50.8c-39.7,0.5-74.7,20.5-96,50.8h-5.4
		C82.7,42.7,119.8,20.9,162.1,20.3z M165.5,267.7c-42.9,0.6-81.1-20.9-103.8-53.9h5.4c22,30.4,58,50,98.3,49.5
		c39.1-0.5,73.7-20,95-49.5h5.4C243.9,245.9,207.2,267.1,165.5,267.7z"/>
	<path class="st0" d="M282.3,89.9c-2-0.9-4.2-1.5-6.5-1.5h-1.5h-5h-3.7h-42.5h-4.6h-6h-10.6h-76.2h-10.6h-6h-4.6H62h-3.7h-5h-3.1
		c-1.6,0-3.1,0.2-4.5,0.7c-6.2,1.9-10.8,7.8-10.8,14.6v21.5v37.5V186c0,7.2,5,13.3,11.7,14.9c1.1,0.3,2.3,0.4,3.6,0.4h4h5H63h43.2
		h4.7h6.2h11.3h70.9h11.3h6.2h4.7h43.2h3.8h5h2.4c1.9,0,3.8-0.4,5.5-1c5.7-2.2,9.8-7.8,9.8-14.3v-14.2v-55.6v-12.5
		C291.1,97.6,287.5,92.4,282.3,89.9z M288.1,105V183v3c0,3.9-1.8,7.4-4.7,9.7c-2.1,1.6-4.7,2.6-7.6,2.6h-0.9H270h-3.7h-42h-4.5H214
		h-10.3h-79.8h-10.3h-5.8h-4.5h-42h-3.7h-4.9h-2.5c-1.9,0-3.7-0.5-5.3-1.2c-4.1-2-7-6.2-7-11.1v-8.6v-66.8v-6.9
		c0-4.5,2.4-8.4,6-10.5c1.9-1.1,4-1.8,6.3-1.8h1.7h4.9h3.7h41.4h4.3h5.7h9.8H206h9.8h5.7h4.3h41.4h3.7h4.9h0c3.4,0,6.5,1.4,8.8,3.7
		c2.2,2.2,3.5,5.3,3.5,8.6V105z"/>
	<path class="st0" d="M130.8,130.5c0-3.9-0.8-7.5-2.4-10.9c-1.6-3.4-3.7-6.4-6.4-8.9c-2.7-2.5-5.9-4.6-9.5-6
		c-0.9-0.4-1.8-0.7-2.7-0.9c-2.3-0.7-4.7-1.1-7.2-1.2c-0.6,0-1.3-0.1-1.9-0.1h-2.9h-3.8h-7.8H79h0v41h7.2v-33.8h13.5
		c3.1,0,6,0.5,8.6,1.6c2.7,1.1,5,2.6,6.9,4.5c1.9,1.9,3.5,4.1,4.5,6.6c1.1,2.5,1.6,5.2,1.6,8.1c0,2.9-0.5,5.5-1.6,8.1
		c-1.1,2.5-2.6,4.7-4.5,6.6c-1.9,1.9-4.2,3.4-6.9,4.5c-2.7,1.1-5.6,1.6-8.7,1.6H79v7.2h21.7c4.3,0,8.3-0.7,12-2.2
		c3.7-1.5,6.9-3.5,9.5-6c2.7-2.5,4.8-5.5,6.3-8.9C130,138,130.8,134.4,130.8,130.5z"/>
	<rect x="142.4" y="102.4" class="st0" width="9.1" height="56.1"/>
	<polygon class="st0" points="187.4,102.5 176,102.5 154.5,126.9 178.5,158.4 189.2,158.4 165.4,127.1 	"/>
	<path class="st0" d="M236.6,146.2c-1.8,1.5-3.8,2.6-6.1,3.4c-2.3,0.8-4.6,1.2-7.1,1.2c-2.9,0-5.6-0.5-8.1-1.6
		c-2.5-1.1-4.7-2.5-6.6-4.4c-1.9-1.8-3.4-4-4.5-6.4c-1.1-2.4-1.7-5.1-1.7-7.9c0-2.8,0.6-5.4,1.7-7.9c1.1-2.4,2.6-4.6,4.5-6.4
		c1.9-1.8,4.1-3.3,6.6-4.4c2.5-1.1,5.2-1.6,8.1-1.6c3.7,0,7.1,0.9,10.1,2.6c3.1,1.7,5.5,4,7.3,6.9H251c-1.2-2.5-2.7-4.8-4.5-6.9
		c-1.8-2.1-4-3.9-6.3-5.5c-1.6-1-3.3-1.9-5.2-2.6c-0.9-0.3-1.7-0.7-2.7-0.9c-0.6-0.2-1.3-0.3-1.9-0.5c-1.7-0.4-3.5-0.6-5.3-0.7
		c-0.6,0-1.1-0.1-1.7-0.1c-2.1,0-4.1,0.2-6,0.5c-2,0.4-3.9,0.9-5.7,1.7c-3.7,1.5-6.9,3.5-9.6,6c-2.7,2.5-4.8,5.5-6.4,8.9
		c-1.6,3.4-2.4,7-2.4,10.9c0,3.9,0.8,7.5,2.4,10.9c1.6,3.4,3.7,6.3,6.4,8.9c2.7,2.5,5.9,4.5,9.6,6c3.7,1.5,7.6,2.2,11.7,2.2
		c3.8,0,7.4-0.6,10.8-1.8c3.4-1.2,6.4-2.9,9-5c2.6-2.1,4.8-4.7,6.5-7.6c0.5-0.9,1-1.8,1.4-2.8H241
		C239.8,143.1,238.3,144.8,236.6,146.2z"/>
	<polygon class="st0" points="79.9,171.4 78.3,171.4 78.3,187.6 85.7,187.6 85.7,186.2 79.9,186.2 	"/>
	<polygon class="st0" points="101.9,179.9 101.9,184.4 101.9,187.6 104,187.6 110.3,187.6 110.3,186.2 103.5,186.2 103.5,180.1 
		106.9,180.1 109.6,180.1 109.6,178.8 103.5,178.8 103.5,172.7 110.3,172.7 110.3,171.4 101.9,171.4 	"/>
	<polygon class="st0" points="137.9,185 128.9,171.4 127.3,171.4 127.3,187.6 128.9,187.6 128.9,174 137.9,187.6 139.5,187.6 
		139.5,171.4 137.9,171.4 	"/>
	<path class="st0" d="M161.8,171.4H157v16.1h4.8c5.4,0,8.5-3,8.5-8C170.3,174.5,167.2,171.4,161.8,171.4z M161.8,186.2h-3.2v-13.5
		h3.2c4.6,0,6.9,2.6,6.9,6.8C168.7,183.7,166.4,186.2,161.8,186.2z"/>
	<rect x="187.2" y="171.4" class="st0" width="1.6" height="16.1"/>
	<polygon class="st0" points="216.8,185 207.9,171.4 206.3,171.4 206.3,187.6 207.9,187.6 207.9,174 216.1,186.5 216.8,187.6 
		218.5,187.6 218.5,183.4 218.5,171.4 216.8,171.4 	"/>
	<path class="st0" d="M242.6,180.3h6.8c-0.3,3.7-2.7,6-6.1,6c-3.5,0-6.3-2.5-6.3-6.6c0-0.1,0-0.1,0-0.2c0-0.5,0-1,0.1-1.4
		c0.6-3.3,3.1-5.3,6.2-5.3c2.6,0,4.5,1.3,5.4,3.4h1.9c-1.2-3.1-3.9-4.9-7.3-4.9c-4.1,0-7.3,2.8-7.9,6.8c-0.1,0.5-0.1,0.9-0.1,1.4
		c0,0.9,0.1,1.8,0.4,2.7c1,3.4,4,5.6,7.6,5.6c4.4,0,7.6-3.3,7.8-7.5V179h-8.5V180.3z"/>
</g>
</svg>
